<svg xmlns="http://www.w3.org/2000/svg" viewBox="0 0 100 100">
  <path fill="black" d="M25 5h50a20 20 0 0 1 20 20v50a20 20 0 0 1-20 20H25A20 20 0 0 1 5 75V25A20 20 0 0 1 25 5zm5 10a15 15 0 0 0-15 15v15h20a8 8 0 0 0 8-8V20a5 5 0 0 0-7-5 35 35 0 0 0-6 0zm40 0a5 5 0 0 0-5 5v17a8 8 0 0 0 8 8h20V30a15 15 0 0 0-15-15zM15 60v15a15 15 0 0 0 15 15h6a5 5 0 0 0 6-5V63a8 8 0 0 0-8-8H15zm70 0H68a8 8 0 0 0-8 8v17a5 5 0 0 0 7 5 35 35 0 0 0 3 0 15 15 0 0 0 15-15zM35 60h30a8 8 0 0 0 8-8V40a8 8 0 0 0-8-8H35a8 8 0 0 0-8 8v12a8 8 0 0 0 8 8z"/>
</svg>